# xmcd
#
# Track frame offsets:
#	150
#	16146
#	26365
#	39773
#	51075
#	63174
#	76541
#	89256
#	103097
#	115337
#	124909
#	141328
#	155955
#	167555
#	182113
#	193158
#	204987
#	217126
#	228551
#	242329
#
# Disc length: 3432 seconds
#
# Revision: 0
# Processed by: cddbd v1.5.1PL0 Copyright (c) Steve Scherf et al.
# Submitted via: EasyCDDAExtractor 8.0.1.1
#
DISCID=0b0d6614
DTITLE=Tammy Wynette - Tammy
DYEAR=1900
DGENRE=Country
TTITLE0=A Candle In The Wind
TTITLE1=Another Chance
TTITLE2=Apartment # 9
TTITLE3=Cheatin' is
TTITLE4=Crying Time
TTITLE5=D.I.V.O.R.C.E.
TTITLE6=Dc848
TTITLE7=Dear Daughters
TTITLE8=Hello Darlin'
TTITLE9=I Believe
TTITLE10=I Was Country When Country Wasn't Cool
TTITLE11=No Charge
TTITLE12=Precious Memories
TTITLE13=Rose Garden
TTITLE14=Run,Woman,Run
TTITLE15=Sandi
TTITLE16=Stand By Your Man
TTITLE17=Sweet Dreams
TTITLE18=Till I Can Make It On My Own
TTITLE19=You needed me
EXTD=
EXTT0=
EXTT1=
EXTT2=
EXTT3=
EXTT4=
EXTT5=
EXTT6=
EXTT7=
EXTT8=
EXTT9=
EXTT10=
EXTT11=
EXTT12=
EXTT13=
EXTT14=
EXTT15=
EXTT16=
EXTT17=
EXTT18=
EXTT19=
PLAYORDER=
